<?xml version="1.0" encoding="UTF-8"?>
<svg id="Layer_2" data-name="Layer 2" xmlns="http://www.w3.org/2000/svg" viewBox="0 0 312.1 149.22">
  <defs>
    <style>
      .cls-1 {
        fill: #ca2026;
      }

      .cls-2 {
        fill: #231f20;
      }
    </style>
  </defs>
  <g id="Layer_1_copy" data-name="Layer 1 copy">
    <g id="LA_VHQ_B">
      <polygon class="cls-2" points="43.47 146.52 164.06 0 191.98 0 71.19 146.52 43.47 146.52"/>
      <path class="cls-1" d="M138.1,80.87h19.49v4.46h-19.49v-4.46ZM191.7,0h24.99c.35,1.45,8.47,28.48,24.37,81.08h4.46v48.84h-10.26v3.84h10.26v10.47h-27.58v-30.07h-33.8v12.75h-13.69v21.57h-25.09v-1.45h1.97v-20.11h10.26v-41.58h8.5L191.7,0ZM203.42,41.79v.31c-2.14,11.75-6.29,30.34-12.44,55.78h23.23v-16.8h-1.97c-5.53-24.05-8.29-37.15-8.29-39.3h-.52ZM217.93,145.99h33.39v2.49h-33.39v-2.49Z"/>
      <path class="cls-1" d="M93.14,80.3v43.83h44.63v13.17h-8.86v3.01h8.86v8.5h-28.91v-2.28h-39.95s.07-2.9.07-3.73v-33.18h4.24v-4.46h-4.24v-11.25M68.98,94.49l.25-29.42,31.32-19.84-1.86,14.76-5.55.02v20.76M137.77,137.8h10.97v3.03h-10.97v-3.03Z"/>
      <g>
        <path class="cls-2" d="M138.39,124.12h3.37s.01,0,.01.01v.56s0,.01-.01.01h-2.59v.38h1.92s.01,0,.01.01v.51s0,.01-.01.01h-1.92v.96s0,.01-.01.01h-.77s-.01,0-.01-.01v-2.45s0-.01.01-.01Z"/>
        <path class="cls-2" d="M138.39,128.92h2.6c.24,0,.44.09.62.27.11.12.16.26.16.4v.45c0,.23-.13.42-.38.58l-.1.04.48.73h-.01s-.94,0-.94,0c-.02-.03-.18-.25-.46-.68h-1.2v.67s0,.01-.01.01h-.77s-.01,0-.01-.01v-2.45s0-.01.01-.01ZM139.17,129.51v.62h1.5c.16,0,.26-.07.3-.21,0-.03,0-.06,0-.09,0-.15-.06-.25-.19-.3-.04-.01-.08-.02-.12-.02h-1.51Z"/>
        <path class="cls-2" d="M138.39,133.64h2.59c.28,0,.5.11.67.32.08.12.12.24.12.35v.04c0,.19-.1.36-.29.51.15.12.24.25.26.37.02.04.02.09.02.16v.05c0,.25-.15.45-.44.59-.07.03-.16.05-.27.07h-2.67s-.01,0-.01-.01v-.56s0,0,.01,0h2.37c.12,0,.19-.04.22-.13,0-.03.01-.05.01-.06,0-.08-.04-.13-.12-.17-.02-.01-.05-.02-.09-.02h-1.72s-.01,0-.01-.01v-.51s0-.01.01-.01h1.72c.09,0,.16-.04.19-.12.01-.04.02-.06.02-.07-.03-.13-.09-.19-.18-.19,0,0-.01,0-.04,0h-2.38s-.01,0-.01-.01v-.56s0-.01.01-.01Z"/>
        <path class="cls-2" d="M138.39,138.36h2.59c.28,0,.5.11.67.32.08.12.12.24.12.35v.04c0,.19-.1.36-.29.51.15.12.24.25.26.37.02.04.02.09.02.16v.06c0,.25-.15.45-.44.59-.07.03-.16.05-.27.07h-2.67s-.01,0-.01-.01v-.56s0,0,.01,0h2.37c.12,0,.19-.04.22-.13,0-.03.01-.05.01-.06,0-.08-.04-.13-.12-.17-.02-.01-.05-.02-.09-.02h-1.72s-.01,0-.01-.01v-.51s0-.01.01-.01h1.72c.09,0,.16-.04.19-.12.01-.04.02-.06.02-.07-.03-.13-.09-.19-.18-.19,0,0-.01,0-.04,0h-2.38s-.01,0-.01-.01v-.56s0-.01.01-.01Z"/>
      </g>
      <path class="cls-2" d="M0,146.52L120.59,0h27.92L27.72,146.52H0Z"/>
      <g>
        <path class="cls-2" d="M312.1.78v53.44h-53.44V.78h53.44ZM293.36,12.65l-7.98,20.78-8.07-20.78h-6.77l11.88,29.69h5.94l11.88-29.69h-6.87Z"/>
        <path class="cls-2" d="M312.1,48.28v53.44h-53.44v-53.44h53.44ZM270.54,60.15v29.69h5.94v-11.88h17.81v11.88h5.94v-29.69h-5.94v11.88h-17.81v-11.88h-5.94Z"/>
        <path class="cls-2" d="M312.1,95.78v53.44h-53.44v-53.44h53.44ZM288.35,143.28h7.61l-5.94-5.94h10.21v-29.69h-29.69v29.69h11.88l5.94,5.94ZM276.48,131.4v-17.81h17.81v17.81h-17.81Z"/>
      </g>
      <!-- VHQ text as paths -->
      <g class="cls-2">
        <path d="M258.35,95 L258.35,0 L283.35,0 L283.35,95 L258.35,95 Z M233.35,95 L233.35,0 L258.35,0 L258.35,95 L233.35,95 Z"/>
        <path d="M283.35,95 L283.35,0 L308.35,0 L308.35,47.5 L333.35,0 L358.35,0 L358.35,95 L333.35,95 L333.35,47.5 L308.35,95 L283.35,95 Z"/>
        <path d="M358.35,95 L358.35,0 L433.35,0 L433.35,25 L383.35,25 L383.35,35 L423.35,35 L423.35,60 L383.35,60 L383.35,70 L433.35,70 L433.35,95 L358.35,95 Z"/>
      </g>
    </g>
  </g>
</svg>