<svg width="200" height="200" viewBox="0 0 200 200" fill="none" xmlns="http://www.w3.org/2000/svg">
  <!-- LA in red (stacked) -->
  <g fill="#DC2626">
    <!-- L -->
    <rect x="40" y="30" width="12" height="80"/>
    <rect x="40" y="98" width="40" height="12"/>
    
    <!-- A -->
    <polygon points="100,110 115,30 130,110 122,110 122,85 108,85 108,110"/>
    <rect x="108" y="70" width="8" height="10"/>
  </g>
  
  <!-- GRIETA in dark gray for light backgrounds -->
  <g fill="#1F2937">
    <!-- G -->
    <path d="M40,130 L40,200 L80,200 L80,185 L55,185 L55,165 L75,165 L75,150 L55,150 L55,145 L80,145 L80,130 Z"/>
    
    <!-- R -->
    <rect x="90" y="130" width="10" height="70"/>
    <rect x="90" y="130" width="25" height="10"/>
    <rect x="90" y="160" width="25" height="10"/>
    <rect x="110" y="140" width="10" height="15"/>
    <rect x="110" y="175" width="10" height="25"/>
    <polygon points="115,175 125,200 135,200 120,175"/>
    
    <!-- I -->
    <rect x="145" y="130" width="10" height="70"/>
  </g>
  
  <!-- Glitch effects -->
  <rect x="108" y="35" width="2" height="6" fill="#DC2626" opacity="0.7"/>
  <rect x="118" y="60" width="2" height="8" fill="#DC2626" opacity="0.5"/>
  <rect x="55" y="140" width="2" height="8" fill="#1F2937" opacity="0.6"/>
  <rect x="95" y="175" width="2" height="10" fill="#1F2937" opacity="0.4"/>
  <rect x="147" y="155" width="2" height="12" fill="#1F2937" opacity="0.6"/>
</svg> 