<?xml version="1.0" encoding="UTF-8"?>
<svg id="Layer_2" data-name="Layer 2" xmlns="http://www.w3.org/2000/svg" viewBox="0 0 761.23 186.75">
  <defs>
    <style>
      .cls-1, .cls-2, .cls-3 {
        fill: #fcfdff;
      }

      .cls-1, .cls-3 {
        font-family: ASTERA, ASTERA;
        font-size: 4.72px;
      }

      .cls-4 {
        fill: #ca2026;
      }

      .cls-3 {
        glyph-orientation-vertical: 0deg;
        text-orientation: upright;
        writing-mode: tb;
      }
    </style>
  </defs>
  <g id="VHQ_LAG_W">
    <g>
      <g>
        <g>
          <path class="cls-2" d="M301.23,57.66c-.01.73-.02,1.47-.02,2.22v11.61c0,13.55.17,23.71.52,30.48h6.12v20.74h29.55v-35.46h-18.66v-18.97h56.2v4.15h-7.36v21.98h-15.03v6.84h7.36v42.2h-80.36v-22.4h-9.12v-1.97h3.94v-2.28h5.18v-8.4h-14.1v-17.94h6.64c-.14-5.25-.21-8.29-.21-9.12,0-4.11.03-8,.09-11.68M271.96,69.71c.39-24.52,2.09-39.64,5.1-45.35.97-4.08,3.84-8.61,8.61-13.58,6.98-7.19,18.66-10.78,35.05-10.78h.21c22.19,0,35.77,7.22,40.75,21.67,2.28,5.39,3.42,12.96,3.42,22.71l-24.16,3.21-.31-.52v-.52c0-11.68-3.94-18.66-11.82-20.94-2.42-.62-5.36-1.04-8.81-1.24-8.57,0-14.1,4.6-16.59,13.79-1.32,5.6-2.04,12.12-2.16,19.55M300.17,145.63h30.59v3.01h-30.59v-3.01ZM303.91,93.37h1.45v6.64h-1.45v-6.64Z"/>
          <path class="cls-2" d="M366.97,61.87V.37h50.81c17,0,27.99,5.98,32.97,17.94,2.4,6.89,3.21,13.08,3.21,21.15v6.22c0,14.38-3.15,25.33-9.44,32.87h-10.78v5.5h16.49v35.46h-9.75v5.5h14.72v20.94h-30.9v-33.49h-11.92v-21.67h-20.74v36.7h4.46v21.15h-28.62c-.35,0-.52-.17-.52-.52v-59.51h12.75v-4.25h-12.75v-22.48M396.11,39.57v26.84h7.05c10.58,0,16.69-1,18.35-3.01,1.73-1.1,3.08-3.35,4.04-6.74h10.99v-5.29h-9.95v.52c-.55,3.18-.97,4.77-1.24,4.77h-14.2v-5.29h14.93c.35,0,.52-.14.52-.41.14-4.29.21-6.7.21-7.26,0-9.26-1.59-14.93-4.77-17-2.49-1.45-7.05-2.18-13.69-2.18h-12.23v15.04"/>
          <path class="cls-2" d="M494.23,55.42v17.32c0,.35-.14.52-.41.52h-3.32v74.86c0,.35-.17.52-.52.52h-24.16c-.35,0-.52-.17-.52-.52v-76.62h-7.47c-.35,0-.52-.17-.52-.52v-3.21c.07-.35.24-.52.52-.52h7.47V.57c.07-.35.24-.52.52-.52h27.99c.28.07.41.24.41.52v54.85M479.82,67.24h-14.31v4.25h14.31v-4.25"/>
          <path class="cls-2" d="M538.83,28.7v28.43h38.99v.21c0,.97-.17,6.22-.52,15.76-.14,0-.21.1-.21.31h1.76v7.47h-33.8v30.48h-9.02v3.01h9.02v9.23h38.26v3.53h-3.01v18.25h-45.72v3.21h-21.77v-53.19h-3.21v-18.77h-23.74v-3.21h23.74v-17.07M509.59,56.34V.1h73.2v24.26c0,.35-.17.52-.52.52h-43.44v3.82M509.79,73.41v3.21h12.23v-3.21h-12.23ZM581.86,128.57h1.45v.31c0,2.97-.24,4.46-.73,4.46s-.73-1.07-.73-3.21v-1.56ZM581.86,133.55h1.45v1.56h-1.45v-1.56Z"/>
          <path class="cls-2" d="M581.41.06h87.09v24.78h-28.82v102.75h13.06v3.01h-13.06v11.3h-7.78v3.94h5.5v2.8h-26.44c-.35,0-.52-.17-.52-.52V24.84h-29.03V.06ZM629.41,127.59v3.01h10.06v-3.01h-10.06Z"/>
          <path class="cls-2" d="M760.56,85.49h-19.49v-4.46h19.49v4.46ZM732.56,85.49h8.5v41.58s10.26,0,10.26,0v20.11s1.97,0,1.97,0v1.45h-25.09v-21.57s-13.69,0-13.69,0v-12.75s-33.8,0-33.8,0v30.07h-27.58v-10.47h10.26s0-3.84,0-3.84h-10.26v-48.84h4.46c15.9-52.6,24.02-79.63,24.37-81.08h24.99s25.61,85.33,25.61,85.33ZM694.72,41.94c0,2.14-2.76,15.24-8.29,39.3h-1.97s0,16.8,0,16.8h23.23c-6.15-25.44-10.3-44.03-12.44-55.78v-.31s-.52,0-.52,0ZM680.72,148.64h-33.39v-2.49h33.39v2.49ZM681.39,127.04c1.54-2.64,2.35-4,2.41-4.09h1.33c.24.4.67,1.12,1.28,2.16.78,1.31,1.18,1.98,1.18,2h-1.54s-.54-.91-1.58-2.67h0c-.69,1.18-1.05,1.78-1.07,1.81-.3.52-.47.81-.51.86h-1.53s.03-.07.04-.07ZM681.48,122.62c1.54-2.64,2.35-4,2.41-4.09h1.33c.24.4.67,1.12,1.28,2.16.78,1.31,1.18,1.98,1.18,2h-1.54s-.54-.91-1.58-2.67h0c-.69,1.18-1.05,1.78-1.07,1.81-.3.52-.47.81-.51.86h-1.53s.03-.07.04-.07ZM681.51,118.27c1.54-2.64,2.35-4,2.41-4.09h1.33c.24.4.67,1.12,1.28,2.16.78,1.31,1.18,1.98,1.18,2h-1.54s-.54-.91-1.58-2.67h0c-.69,1.18-1.05,1.78-1.07,1.81-.3.52-.47.81-.51.86h-1.53s.03-.07.04-.07Z"/>
        </g>
        <text class="cls-3" transform="translate(277.36 120.78)"><tspan x="0" y="0">3mbr</tspan></text>
        <text class="cls-1" transform="translate(338.12 101.61)"><tspan x="0" y="0">4c3</tspan></text>
        <text class="cls-1" transform="translate(369.05 88.56)"><tspan x="0" y="0">y0</tspan></text>
        <text class="cls-1" transform="translate(434.03 82.33)"><tspan x="0" y="0">ur</tspan></text>
        <text class="cls-3" transform="translate(454.88 133.25)"><tspan x="0" y="0">sk1</tspan></text>
        <text class="cls-1" transform="translate(492.48 73.99)"><tspan x="0" y="0">lls</tspan></text>
        <text class="cls-1" transform="translate(539.52 57.14)"><tspan x="0" y="0">1nf</tspan></text>
        <text class="cls-1" transform="translate(546.12 122.88)"><tspan x="0" y="0">f0</tspan></text>
        <text class="cls-1" transform="translate(635.19 145.94)"><tspan x="0" y="0">y0</tspan></text>
        <text class="cls-1" transform="translate(678.54 85.56)"><tspan x="0" y="0">ur</tspan></text>
        <text class="cls-1" transform="translate(691.43 130.95)"><tspan x="0" y="0">s3</tspan></text>
        <text class="cls-1" transform="translate(752.58 127.33)"><tspan x="0" y="0">lf</tspan></text>
        <g>
          <text class="cls-1" transform="translate(150.12 127.67)"><tspan x="0" y="0">y0</tspan></text>
          <text class="cls-1" transform="translate(158 85.45)"><tspan x="0" y="0">ur</tspan></text>
          <text class="cls-3" transform="translate(247.53 127.29)"><tspan x="0" y="0">l1f3</tspan></text>
          <path class="cls-2" d="M191.02,127.25h-1.53c-.05-.05-.22-.34-.51-.86-.02-.03-.38-.63-1.07-1.81h0c-1.03,1.76-1.56,2.65-1.58,2.67h-1.54s.39-.69,1.18-2c.61-1.05,1.04-1.77,1.28-2.16h1.33c.06.09.87,1.46,2.41,4.09,0,0,.02.03.04.07Z"/>
          <path class="cls-2" d="M190.93,122.83h-1.53c-.05-.05-.22-.34-.51-.86-.02-.03-.38-.63-1.07-1.81h0c-1.03,1.76-1.56,2.65-1.58,2.67h-1.54s.39-.69,1.18-2c.61-1.05,1.04-1.77,1.28-2.16h1.33c.06.09.87,1.46,2.41,4.09,0,0,.02.03.04.07Z"/>
          <path class="cls-2" d="M190.9,118.49h-1.53c-.05-.05-.22-.34-.51-.86-.02-.03-.38-.63-1.07-1.81h0c-1.03,1.76-1.56,2.65-1.58,2.67h-1.54s.39-.69,1.18-2c.61-1.05,1.04-1.77,1.28-2.16h1.33c.06.09.87,1.46,2.41,4.09,0,0,.02.03.04.07Z"/>
          <g>
            <polygon class="cls-2" points="43.47 147 164.06 .48 191.98 .48 71.19 147 43.47 147"/>
            <path class="cls-4" d="M138.1,81.36h19.49v4.46h-19.49v-4.46ZM191.7.48h24.99c.35,1.45,8.47,28.48,24.37,81.08h4.46v48.84h-10.26v3.84h10.26v10.47h-27.58v-30.07h-33.8v12.75h-13.69v21.57h-25.09v-1.45h1.97v-20.11h10.26v-41.58h8.5L191.7.48ZM203.42,42.27v.31c-2.14,11.75-6.29,30.34-12.44,55.78h23.23v-16.8h-1.97c-5.53-24.05-8.29-37.15-8.29-39.3h-.52ZM217.93,146.47h33.39v2.49h-33.39v-2.49Z"/>
            <path class="cls-4" d="M93.14,80.78v43.83h44.63v13.17h-8.86v3.01h8.86v8.5h-28.91v-2.28h-39.95s.07-2.9.07-3.73v-33.18h4.24v-4.46h-4.24v-11.25M68.98,94.97l.25-29.42,31.32-19.84-1.86,14.76-5.55.02v20.76M137.77,138.28h10.97v3.03h-10.97v-3.03Z"/>
            <g>
              <path class="cls-2" d="M138.39,124.6h3.37s.01,0,.01.01v.56s0,.01-.01.01h-2.59v.38h1.92s.01,0,.01.01v.51s0,.01-.01.01h-1.92v.96s0,.01-.01.01h-.77s-.01,0-.01-.01v-2.45s0-.01.01-.01Z"/>
              <path class="cls-2" d="M138.39,129.4h2.6c.24,0,.44.09.62.27.11.12.16.26.16.4v.45c0,.23-.13.42-.38.58l-.1.04.48.73h-.01s-.94,0-.94,0c-.02-.03-.18-.25-.46-.68h-1.2v.67s0,.01-.01.01h-.77s-.01,0-.01-.01v-2.45s0-.01.01-.01ZM139.17,129.99v.62h1.5c.16,0,.26-.07.3-.21,0-.03,0-.06,0-.09,0-.15-.06-.25-.19-.3-.04-.01-.08-.02-.12-.02h-1.51Z"/>
              <path class="cls-2" d="M138.39,134.12h2.59c.28,0,.5.11.67.32.08.12.12.24.12.35v.04c0,.19-.1.36-.29.51.15.12.24.25.26.37.02.04.02.09.02.16v.05c0,.25-.15.45-.44.59-.07.03-.16.05-.27.07h-2.67s-.01,0-.01-.01v-.56s0,0,.01,0h2.37c.12,0,.19-.04.22-.13,0-.03.01-.05.01-.06,0-.08-.04-.13-.12-.17-.02-.01-.05-.02-.09-.02h-1.72s-.01,0-.01-.01v-.51s0-.01.01-.01h1.72c.09,0,.16-.04.19-.12.01-.04.02-.06.02-.07-.03-.13-.09-.19-.18-.19,0,0-.01,0-.04,0h-2.38s-.01,0-.01-.01v-.56s0-.01.01-.01Z"/>
              <path class="cls-2" d="M138.39,138.84h2.59c.28,0,.5.11.67.32.08.12.12.24.12.35v.04c0,.19-.1.36-.29.51.15.12.24.25.26.37.02.04.02.09.02.16v.06c0,.25-.15.45-.44.59-.07.03-.16.05-.27.07h-2.67s-.01,0-.01-.01v-.56s0,0,.01,0h2.37c.12,0,.19-.04.22-.13,0-.03.01-.05.01-.06,0-.08-.04-.13-.12-.17-.02-.01-.05-.02-.09-.02h-1.72s-.01,0-.01-.01v-.51s0-.01.01-.01h1.72c.09,0,.16-.04.19-.12.01-.04.02-.06.02-.07-.03-.13-.09-.19-.18-.19,0,0-.01,0-.04,0h-2.38s-.01,0-.01-.01v-.56s0-.01.01-.01Z"/>
            </g>
            <path class="cls-2" d="M0,147L120.59.48h27.92L27.72,147H0Z"/>
          </g>
        </g>
      </g>
      <g>
        <path class="cls-2" d="M33.19,153.56v33.19H0v-33.19h33.19ZM21.55,160.94l-4.96,12.91-5.01-12.91h-4.21l7.38,18.44h3.69l7.38-18.44h-4.26Z"/>
        <path class="cls-2" d="M56.79,160.94v18.44h-3.69v-18.44h3.69Z"/>
        <path class="cls-2" d="M98.83,168.31v-3.69h-11.06v14.75h-3.69v-18.44h18.44v11.06h-6.51l6.51,7.38h-4.55l-9.74-11.06h10.6Z"/>
        <path class="cls-2" d="M126.11,160.94h14.75l-3.69,3.69h-3.69v14.75h-3.69v-14.75h-7.38l3.69-3.69Z"/>
        <path class="cls-2" d="M164.46,160.94v14.75h11.06v-14.75h3.69v18.44h-18.44v-18.44h3.69Z"/>
        <path class="cls-2" d="M213.36,179.37l-5.01-12.91-5.01,12.91h-4.21l7.38-18.44h3.69l7.38,18.44h-4.21Z"/>
        <path class="cls-2" d="M252.23,179.37h-14.75v-18.44h3.69v14.75h14.75l-3.69,3.69Z"/>
        <path class="cls-2" d="M339.99,153.56v33.19h-33.19v-33.19h33.19ZM314.18,160.94v18.44h3.69v-7.38h11.06v7.38h3.69v-18.44h-3.69v7.38h-11.06v-7.38h-3.69Z"/>
        <path class="cls-2" d="M356.21,168.31h14.75l-3.69,3.69h-11.06v3.69h14.75l-3.69,3.69h-14.75v-18.44h18.44l-3.69,3.69h-11.06v3.69Z"/>
        <path class="cls-2" d="M405.11,179.37l-5.01-12.91-5.01,12.91h-4.21l7.38-18.44h3.69l7.38,18.44h-4.21Z"/>
        <path class="cls-2" d="M443.98,160.94l3.69,3.69v14.75h-18.44v-18.44h14.75ZM432.91,175.69h11.06v-11.06h-11.06v11.06Z"/>
        <path class="cls-2" d="M493.39,153.56v33.19h-33.19v-33.19h33.19ZM478.64,183.06h4.72l-3.69-3.69h6.34v-18.44h-18.44v18.44h7.38l3.69,3.69ZM471.26,175.69v-11.06h11.06v11.06h-11.06Z"/>
        <path class="cls-2" d="M509.61,160.94v14.75h11.06v-14.75h3.69v18.44h-18.44v-18.44h3.69Z"/>
        <path class="cls-2" d="M558.51,179.37l-5.01-12.91-5.01,12.91h-4.21l7.38-18.44h3.69l7.38,18.44h-4.21Z"/>
        <path class="cls-2" d="M597.38,168.31v-3.69h-11.06v14.75h-3.69v-18.44h18.44v11.06h-6.51l6.51,7.38h-4.55l-9.74-11.06h10.6Z"/>
        <path class="cls-2" d="M624.66,160.94h14.75l-3.69,3.69h-3.69v14.75h-3.69v-14.75h-7.38l3.69-3.69Z"/>
        <path class="cls-2" d="M663.01,168.31h14.75l-3.69,3.69h-11.06v3.69h14.75l-3.69,3.69h-14.75v-18.44h18.44l-3.69,3.69h-11.06v3.69Z"/>
        <path class="cls-2" d="M712.43,168.31v-3.69h-11.06v14.75h-3.69v-18.44h18.44v11.06h-6.51l6.51,7.38h-4.55l-9.74-11.06h10.6Z"/>
        <path class="cls-2" d="M750.78,164.62h-11.06v3.69h14.75v11.06h-18.44l3.69-3.69h11.06v-3.69h-14.75v-11.06h18.44l-3.69,3.69Z"/>
      </g>
    </g>
  </g>
</svg>